<svg width="229" height="65" viewBox="0 0 229 65" fill="none" xmlns="http://www.w3.org/2000/svg">
<rect x="10" width="206" height="5" fill="#AA9314"/>
<rect x="5" y="5" width="3" height="6" fill="#AA9314"/>
<rect y="10.832" width="3.84566" height="43.3341" fill="#AA9314"/>
<rect x="5.20312" y="55" width="4.7958" height="5" fill="#AA9314"/>
<rect x="218.637" y="5" width="3.11085" height="6.04543" fill="#AA9314"/>
<rect x="223.844" y="11" width="5.15556" height="44" fill="#AA9314"/>
<rect x="216" y="55" width="8" height="5" fill="#AA9314"/>
<rect x="10" y="60" width="209" height="5" fill="#AA9314"/>
<rect x="9.88672" y="55" width="206.222" height="5" fill="#AA9314"/>
<rect y="11" width="225" height="44" fill="#AA9314"/>
<rect x="7.60156" y="5.41797" width="210.804" height="5.4581" fill="#AA9314"/>
<rect x="10" width="209" height="5" fill="#FFE65C"/>
<rect x="5" y="5" width="5" height="5" fill="#FFE65C"/>
<rect y="10" width="5" height="40" fill="#FFE65C"/>
<rect x="5" y="50" width="5" height="5" fill="#FFE65C"/>
<rect x="216" y="5" width="8" height="5" fill="#FFE65C"/>
<rect x="224" y="10" width="5" height="40" fill="#FFE65C"/>
<rect x="217" y="50" width="7" height="5" fill="#FFE65C"/>
<rect x="10" y="55" width="209" height="5" fill="#FFE65C"/>
<rect x="10" y="50" width="209" height="5" fill="#F3D116"/>
<rect x="5" y="10" width="219" height="40" fill="#F3D116"/>
<rect x="10" y="5" width="209" height="5" fill="#F3D116"/>
<path d="M83.87 39H80.6C79.02 39 77.8 38.58 76.94 37.74C76.08 36.9 75.65 35.69 75.65 34.11V24.6C75.65 23.02 76.08 21.81 76.94 20.97C77.8 20.13 79.02 19.71 80.6 19.71H83.87C85.43 19.71 86.64 20.14 87.5 21C88.38 21.84 88.82 23.04 88.82 24.6V26.01C88.82 26.45 88.6 26.67 88.16 26.67H85.64C85.22 26.67 85.01 26.45 85.01 26.01V24.78C85.01 24.14 84.87 23.69 84.59 23.43C84.33 23.15 83.88 23.01 83.24 23.01H81.2C80.58 23.01 80.13 23.15 79.85 23.43C79.59 23.69 79.46 24.14 79.46 24.78V33.93C79.46 34.57 79.59 35.03 79.85 35.31C80.13 35.57 80.58 35.7 81.2 35.7H83.24C83.88 35.7 84.33 35.57 84.59 35.31C84.87 35.03 85.01 34.57 85.01 33.93V32.7C85.01 32.26 85.22 32.04 85.64 32.04H88.16C88.6 32.04 88.82 32.26 88.82 32.7V34.11C88.82 35.67 88.38 36.88 87.5 37.74C86.64 38.58 85.43 39 83.87 39ZM95.2726 39H92.7226C92.3026 39 92.0926 38.79 92.0926 38.37V20.34C92.0926 19.92 92.3026 19.71 92.7226 19.71H95.2726C95.6926 19.71 95.9026 19.92 95.9026 20.34V27.39C95.9026 27.61 96.0226 27.72 96.2626 27.72H101.333C101.553 27.72 101.663 27.61 101.663 27.39V20.34C101.663 19.92 101.873 19.71 102.293 19.71H104.843C105.263 19.71 105.473 19.92 105.473 20.34V38.37C105.473 38.79 105.263 39 104.843 39H102.293C101.873 39 101.663 38.79 101.663 38.37V31.35C101.663 31.13 101.553 31.02 101.333 31.02H96.2626C96.0226 31.02 95.9026 31.13 95.9026 31.35V38.37C95.9026 38.79 95.6926 39 95.2726 39ZM119.818 39H110.008C109.588 39 109.378 38.79 109.378 38.37V20.34C109.378 19.92 109.588 19.71 110.008 19.71H119.818C120.218 19.71 120.418 19.92 120.418 20.34V22.38C120.418 22.8 120.218 23.01 119.818 23.01H113.548C113.308 23.01 113.188 23.12 113.188 23.34V27.24C113.188 27.46 113.308 27.57 113.548 27.57H118.678C119.098 27.57 119.308 27.78 119.308 28.2V30.24C119.308 30.66 119.098 30.87 118.678 30.87H113.548C113.308 30.87 113.188 30.98 113.188 31.2V35.37C113.188 35.59 113.308 35.7 113.548 35.7H119.818C120.218 35.7 120.418 35.91 120.418 36.33V38.37C120.418 38.79 120.218 39 119.818 39ZM131.653 39H128.383C126.803 39 125.583 38.58 124.723 37.74C123.863 36.9 123.433 35.69 123.433 34.11V24.6C123.433 23.02 123.863 21.81 124.723 20.97C125.583 20.13 126.803 19.71 128.383 19.71H131.653C133.213 19.71 134.423 20.14 135.283 21C136.163 21.84 136.603 23.04 136.603 24.6V26.01C136.603 26.45 136.383 26.67 135.943 26.67H133.423C133.003 26.67 132.793 26.45 132.793 26.01V24.78C132.793 24.14 132.653 23.69 132.373 23.43C132.113 23.15 131.663 23.01 131.023 23.01H128.983C128.363 23.01 127.913 23.15 127.633 23.43C127.373 23.69 127.243 24.14 127.243 24.78V33.93C127.243 34.57 127.373 35.03 127.633 35.31C127.913 35.57 128.363 35.7 128.983 35.7H131.023C131.663 35.7 132.113 35.57 132.373 35.31C132.653 35.03 132.793 34.57 132.793 33.93V32.7C132.793 32.26 133.003 32.04 133.423 32.04H135.943C136.383 32.04 136.603 32.26 136.603 32.7V34.11C136.603 35.67 136.163 36.88 135.283 37.74C134.423 38.58 133.213 39 131.653 39ZM143.056 39H140.506C140.086 39 139.876 38.79 139.876 38.37V20.34C139.876 19.92 140.086 19.71 140.506 19.71H143.056C143.476 19.71 143.686 19.92 143.686 20.34V28.89H143.746C143.906 28.41 144.216 27.79 144.676 27.03L149.236 20.34C149.496 19.92 149.886 19.71 150.406 19.71H153.346C153.566 19.71 153.696 19.78 153.736 19.92C153.796 20.04 153.746 20.2 153.586 20.4L147.886 28.29L154.246 38.25C154.386 38.49 154.406 38.68 154.306 38.82C154.226 38.94 154.046 39 153.766 39H151.576C150.876 39 150.406 38.79 150.166 38.37L145.576 31.02L143.686 33.24V38.37C143.686 38.79 143.476 39 143.056 39Z" fill="#5A0C0C"/>
</svg>
