<svg width="1616" height="514" viewBox="0 0 1616 514" fill="none" xmlns="http://www.w3.org/2000/svg">
<path d="M1569 6.00049H48L6 43.0005V473L47 508L1563 507.5L1610 473V42.0005L1569 6.00049Z" fill="#001636"/>
<path d="M45.2506 8.56787L37.6221 15.0336L33.7426 10.4564L41.3712 3.99074L45.2506 8.56787Z" fill="#20F3FF"/>
<path d="M35.0828 17.3765L27.4542 23.8422L23.358 19.0092L30.9865 12.5435L35.0828 17.3765Z" fill="#20F3FF"/>
<path d="M25.6487 25.7422L18.0201 32.2079L14 27.4648L21.6286 20.9991L25.6487 25.7422Z" fill="#20F3FF"/>
<path d="M15.5107 34.5852L7.87564 41.0432L4.00087 36.4621L11.636 30.0041L15.5107 34.5852Z" fill="#20F3FF"/>
<path d="M1574.95 3L1582.48 9.58321L1578.53 14.0996L1571 7.51643L1574.95 3Z" fill="#20F3FF"/>
<path d="M1584.95 11.998L1592.48 18.5813L1588.53 23.0977L1581 16.5145L1584.95 11.998Z" fill="#20F3FF"/>
<path d="M1594.96 20.998L1602.48 27.5813L1598.53 32.0977L1591.01 25.5145L1594.96 20.998Z" fill="#20F3FF"/>
<path d="M1604.96 29.998L1612.49 36.5813L1608.54 41.0977L1601.01 34.5145L1604.96 29.998Z" fill="#20F3FF"/>
<rect x="47.9994" width="12" height="6" fill="#20F3FF"/>
<rect x="63.9994" width="12" height="6" fill="#20F3FF"/>
<rect x="79.9994" width="12" height="6" fill="#20F3FF"/>
<rect x="95.9994" width="12" height="6" fill="#20F3FF"/>
<rect x="111.999" width="12" height="6" fill="#20F3FF"/>
<rect x="127.999" width="12" height="6" fill="#20F3FF"/>
<rect x="143.999" width="12" height="6" fill="#20F3FF"/>
<rect x="159.999" width="12" height="6" fill="#20F3FF"/>
<rect x="175.999" width="12" height="6" fill="#20F3FF"/>
<rect x="191.999" width="12" height="6" fill="#20F3FF"/>
<rect x="207.999" width="12" height="6" fill="#20F3FF"/>
<rect x="223.999" width="12" height="6" fill="#20F3FF"/>
<rect x="239.999" width="12" height="6" fill="#20F3FF"/>
<rect x="255.999" width="12" height="6" fill="#20F3FF"/>
<rect x="271.999" width="12" height="6" fill="#20F3FF"/>
<rect x="287.999" width="12" height="6" fill="#20F3FF"/>
<rect x="303.999" width="12" height="6" fill="#20F3FF"/>
<rect x="319.999" width="12" height="6" fill="#20F3FF"/>
<rect x="335.999" width="12" height="6" fill="#20F3FF"/>
<rect x="351.999" width="12" height="6" fill="#20F3FF"/>
<rect x="367.999" width="12" height="6" fill="#20F3FF"/>
<rect x="383.999" width="12" height="6" fill="#20F3FF"/>
<rect x="399.999" width="12" height="6" fill="#20F3FF"/>
<rect x="415.999" width="12" height="6" fill="#20F3FF"/>
<rect x="431.999" width="12" height="6" fill="#20F3FF"/>
<rect x="447.999" width="12" height="6" fill="#20F3FF"/>
<rect x="463.999" width="12" height="6" fill="#20F3FF"/>
<rect x="479.999" width="12" height="6" fill="#20F3FF"/>
<rect x="495.999" width="12" height="6" fill="#20F3FF"/>
<rect x="511.999" width="12" height="6" fill="#20F3FF"/>
<rect x="527.999" width="12" height="6" fill="#20F3FF"/>
<rect x="543.999" width="12" height="6" fill="#20F3FF"/>
<rect x="559.999" width="12" height="6" fill="#20F3FF"/>
<rect x="575.999" width="12" height="6" fill="#20F3FF"/>
<rect x="591.999" width="12" height="6" fill="#20F3FF"/>
<rect x="607.999" width="12" height="6" fill="#20F3FF"/>
<rect x="623.999" width="12" height="6" fill="#20F3FF"/>
<rect x="639.999" width="12" height="6" fill="#20F3FF"/>
<rect x="655.999" width="12" height="6" fill="#20F3FF"/>
<rect x="671.999" width="12" height="6" fill="#20F3FF"/>
<rect x="687.999" width="12" height="6" fill="#20F3FF"/>
<rect x="703.999" width="12" height="6" fill="#20F3FF"/>
<rect x="719.999" width="12" height="6" fill="#20F3FF"/>
<rect x="735.999" width="12" height="6" fill="#20F3FF"/>
<rect x="751.999" width="12" height="6" fill="#20F3FF"/>
<rect x="767.999" width="12" height="6" fill="#20F3FF"/>
<rect x="783.999" width="12" height="6" fill="#20F3FF"/>
<rect x="799.999" width="12" height="6" fill="#20F3FF"/>
<rect x="815.999" width="12" height="6" fill="#20F3FF"/>
<rect x="831.999" width="12" height="6" fill="#20F3FF"/>
<rect x="847.999" width="12" height="6" fill="#20F3FF"/>
<rect x="863.999" width="12" height="6" fill="#20F3FF"/>
<rect x="879.999" width="12" height="6" fill="#20F3FF"/>
<rect x="895.999" width="12" height="6" fill="#20F3FF"/>
<rect x="911.999" width="12" height="6" fill="#20F3FF"/>
<rect x="927.999" width="12" height="6" fill="#20F3FF"/>
<rect x="943.999" width="12" height="6" fill="#20F3FF"/>
<rect x="959.999" width="12" height="6" fill="#20F3FF"/>
<rect x="975.999" width="12" height="6" fill="#20F3FF"/>
<rect x="991.999" width="12" height="6" fill="#20F3FF"/>
<rect x="1008" width="12" height="6" fill="#20F3FF"/>
<rect x="1024" width="12" height="6" fill="#20F3FF"/>
<rect x="1040" width="12" height="6" fill="#20F3FF"/>
<rect x="1056" width="12" height="6" fill="#20F3FF"/>
<rect x="1072" width="12" height="6" fill="#20F3FF"/>
<rect x="1088" width="12" height="6" fill="#20F3FF"/>
<rect x="1104" width="12" height="6" fill="#20F3FF"/>
<rect x="1120" width="12" height="6" fill="#20F3FF"/>
<rect x="1136" width="12" height="6" fill="#20F3FF"/>
<rect x="1152" width="12" height="6" fill="#20F3FF"/>
<rect x="1168" width="12" height="6" fill="#20F3FF"/>
<rect x="1184" width="12" height="6" fill="#20F3FF"/>
<rect x="1200" width="12" height="6" fill="#20F3FF"/>
<rect x="1216" width="12" height="6" fill="#20F3FF"/>
<rect x="1232" width="12" height="6" fill="#20F3FF"/>
<rect x="1248" width="12" height="6" fill="#20F3FF"/>
<rect x="1264" width="12" height="6" fill="#20F3FF"/>
<rect x="1280" width="12" height="6" fill="#20F3FF"/>
<rect x="1296" width="12" height="6" fill="#20F3FF"/>
<rect x="1312" width="12" height="6" fill="#20F3FF"/>
<rect x="1328" width="12" height="6" fill="#20F3FF"/>
<rect x="1344" width="12" height="6" fill="#20F3FF"/>
<rect x="1360" width="12" height="6" fill="#20F3FF"/>
<rect x="1376" width="12" height="6" fill="#20F3FF"/>
<rect x="1392" width="12" height="6" fill="#20F3FF"/>
<rect x="1408" width="12" height="6" fill="#20F3FF"/>
<rect x="1424" width="12" height="6" fill="#20F3FF"/>
<rect x="1440" width="12" height="6" fill="#20F3FF"/>
<rect x="1456" width="12" height="6" fill="#20F3FF"/>
<rect x="1472" width="12" height="6" fill="#20F3FF"/>
<rect x="1488" width="12" height="6" fill="#20F3FF"/>
<rect x="1504" width="12" height="6" fill="#20F3FF"/>
<rect x="1520" width="12" height="6" fill="#20F3FF"/>
<rect x="1536" width="12" height="6" fill="#20F3FF"/>
<rect x="1552" width="17" height="6" fill="#20F3FF"/>
<path d="M42.8414 505.254L35.2129 498.788L31.3335 503.365L38.962 509.831L42.8414 505.254Z" fill="#20F3FF"/>
<path d="M32.6737 496.445L25.0452 489.98L20.9489 494.813L28.5775 501.278L32.6737 496.445Z" fill="#20F3FF"/>
<path d="M23.2395 488.08L15.611 481.614L11.5908 486.357L19.2194 492.823L23.2395 488.08Z" fill="#20F3FF"/>
<path d="M13.1018 479.237L5.46671 472.779L1.59193 477.36L9.22703 483.818L13.1018 479.237Z" fill="#20F3FF"/>
<path d="M1572.54 510.822L1580.07 504.239L1576.12 499.722L1568.59 506.305L1572.54 510.822Z" fill="#20F3FF"/>
<path d="M1582.54 501.824L1590.07 495.241L1586.12 490.724L1578.59 497.307L1582.54 501.824Z" fill="#20F3FF"/>
<path d="M1592.55 492.824L1600.07 486.241L1596.12 481.724L1588.6 488.307L1592.55 492.824Z" fill="#20F3FF"/>
<path d="M1602.55 483.824L1610.08 477.241L1606.13 472.724L1598.6 479.307L1602.55 483.824Z" fill="#20F3FF"/>
<rect width="12" height="6" transform="matrix(1 0 0 -1 45.5903 513.822)" fill="#20F3FF"/>
<rect width="12" height="6" transform="matrix(1 0 0 -1 61.5903 513.822)" fill="#20F3FF"/>
<rect width="12" height="6" transform="matrix(1 0 0 -1 77.5903 513.822)" fill="#20F3FF"/>
<rect width="12" height="6" transform="matrix(1 0 0 -1 93.5903 513.822)" fill="#20F3FF"/>
<rect width="12" height="6" transform="matrix(1 0 0 -1 109.59 513.822)" fill="#20F3FF"/>
<rect width="12" height="6" transform="matrix(1 0 0 -1 125.59 513.822)" fill="#20F3FF"/>
<rect width="12" height="6" transform="matrix(1 0 0 -1 141.59 513.822)" fill="#20F3FF"/>
<rect width="12" height="6" transform="matrix(1 0 0 -1 157.59 513.822)" fill="#20F3FF"/>
<rect width="12" height="6" transform="matrix(1 0 0 -1 173.59 513.822)" fill="#20F3FF"/>
<rect width="12" height="6" transform="matrix(1 0 0 -1 189.59 513.822)" fill="#20F3FF"/>
<rect width="12" height="6" transform="matrix(1 0 0 -1 205.59 513.822)" fill="#20F3FF"/>
<rect width="12" height="6" transform="matrix(1 0 0 -1 221.59 513.822)" fill="#20F3FF"/>
<rect width="12" height="6" transform="matrix(1 0 0 -1 237.59 513.822)" fill="#20F3FF"/>
<rect width="12" height="6" transform="matrix(1 0 0 -1 253.59 513.822)" fill="#20F3FF"/>
<rect width="12" height="6" transform="matrix(1 0 0 -1 269.59 513.822)" fill="#20F3FF"/>
<rect width="12" height="6" transform="matrix(1 0 0 -1 285.59 513.822)" fill="#20F3FF"/>
<rect width="12" height="6" transform="matrix(1 0 0 -1 301.59 513.822)" fill="#20F3FF"/>
<rect width="12" height="6" transform="matrix(1 0 0 -1 317.59 513.822)" fill="#20F3FF"/>
<rect width="12" height="6" transform="matrix(1 0 0 -1 333.59 513.822)" fill="#20F3FF"/>
<rect width="12" height="6" transform="matrix(1 0 0 -1 349.59 513.822)" fill="#20F3FF"/>
<rect width="12" height="6" transform="matrix(1 0 0 -1 365.59 513.822)" fill="#20F3FF"/>
<rect width="12" height="6" transform="matrix(1 0 0 -1 381.59 513.822)" fill="#20F3FF"/>
<rect width="12" height="6" transform="matrix(1 0 0 -1 397.59 513.822)" fill="#20F3FF"/>
<rect width="12" height="6" transform="matrix(1 0 0 -1 413.59 513.822)" fill="#20F3FF"/>
<rect width="12" height="6" transform="matrix(1 0 0 -1 429.59 513.822)" fill="#20F3FF"/>
<rect width="12" height="6" transform="matrix(1 0 0 -1 445.59 513.822)" fill="#20F3FF"/>
<rect width="12" height="6" transform="matrix(1 0 0 -1 461.59 513.822)" fill="#20F3FF"/>
<rect width="12" height="6" transform="matrix(1 0 0 -1 477.59 513.822)" fill="#20F3FF"/>
<rect width="12" height="6" transform="matrix(1 0 0 -1 493.59 513.822)" fill="#20F3FF"/>
<rect width="12" height="6" transform="matrix(1 0 0 -1 509.59 513.822)" fill="#20F3FF"/>
<rect width="12" height="6" transform="matrix(1 0 0 -1 525.59 513.822)" fill="#20F3FF"/>
<rect width="12" height="6" transform="matrix(1 0 0 -1 541.59 513.822)" fill="#20F3FF"/>
<rect width="12" height="6" transform="matrix(1 0 0 -1 557.59 513.822)" fill="#20F3FF"/>
<rect width="12" height="6" transform="matrix(1 0 0 -1 573.59 513.822)" fill="#20F3FF"/>
<rect width="12" height="6" transform="matrix(1 0 0 -1 589.59 513.822)" fill="#20F3FF"/>
<rect width="12" height="6" transform="matrix(1 0 0 -1 605.59 513.822)" fill="#20F3FF"/>
<rect width="12" height="6" transform="matrix(1 0 0 -1 621.59 513.822)" fill="#20F3FF"/>
<rect width="12" height="6" transform="matrix(1 0 0 -1 637.59 513.822)" fill="#20F3FF"/>
<rect width="12" height="6" transform="matrix(1 0 0 -1 653.59 513.822)" fill="#20F3FF"/>
<rect width="12" height="6" transform="matrix(1 0 0 -1 669.59 513.822)" fill="#20F3FF"/>
<rect width="12" height="6" transform="matrix(1 0 0 -1 685.59 513.822)" fill="#20F3FF"/>
<rect width="12" height="6" transform="matrix(1 0 0 -1 701.59 513.822)" fill="#20F3FF"/>
<rect width="12" height="6" transform="matrix(1 0 0 -1 717.59 513.822)" fill="#20F3FF"/>
<rect width="12" height="6" transform="matrix(1 0 0 -1 733.59 513.822)" fill="#20F3FF"/>
<rect width="12" height="6" transform="matrix(1 0 0 -1 749.59 513.822)" fill="#20F3FF"/>
<rect width="12" height="6" transform="matrix(1 0 0 -1 765.59 513.822)" fill="#20F3FF"/>
<rect width="12" height="6" transform="matrix(1 0 0 -1 781.59 513.822)" fill="#20F3FF"/>
<rect width="12" height="6" transform="matrix(1 0 0 -1 797.59 513.822)" fill="#20F3FF"/>
<rect width="12" height="6" transform="matrix(1 0 0 -1 813.59 513.822)" fill="#20F3FF"/>
<rect width="12" height="6" transform="matrix(1 0 0 -1 829.59 513.822)" fill="#20F3FF"/>
<rect width="12" height="6" transform="matrix(1 0 0 -1 845.59 513.822)" fill="#20F3FF"/>
<rect width="12" height="6" transform="matrix(1 0 0 -1 861.59 513.822)" fill="#20F3FF"/>
<rect width="12" height="6" transform="matrix(1 0 0 -1 877.59 513.822)" fill="#20F3FF"/>
<rect width="12" height="6" transform="matrix(1 0 0 -1 893.59 513.822)" fill="#20F3FF"/>
<rect width="12" height="6" transform="matrix(1 0 0 -1 909.59 513.822)" fill="#20F3FF"/>
<rect width="12" height="6" transform="matrix(1 0 0 -1 925.59 513.822)" fill="#20F3FF"/>
<rect width="12" height="6" transform="matrix(1 0 0 -1 941.59 513.822)" fill="#20F3FF"/>
<rect width="12" height="6" transform="matrix(1 0 0 -1 957.59 513.822)" fill="#20F3FF"/>
<rect width="12" height="6" transform="matrix(1 0 0 -1 973.59 513.822)" fill="#20F3FF"/>
<rect width="12" height="6" transform="matrix(1 0 0 -1 989.59 513.822)" fill="#20F3FF"/>
<rect width="12" height="6" transform="matrix(1 0 0 -1 1005.59 513.822)" fill="#20F3FF"/>
<rect width="12" height="6" transform="matrix(1 0 0 -1 1021.59 513.822)" fill="#20F3FF"/>
<rect width="12" height="6" transform="matrix(1 0 0 -1 1037.59 513.822)" fill="#20F3FF"/>
<rect width="12" height="6" transform="matrix(1 0 0 -1 1053.59 513.822)" fill="#20F3FF"/>
<rect width="12" height="6" transform="matrix(1 0 0 -1 1069.59 513.822)" fill="#20F3FF"/>
<rect width="12" height="6" transform="matrix(1 0 0 -1 1085.59 513.822)" fill="#20F3FF"/>
<rect width="12" height="6" transform="matrix(1 0 0 -1 1101.59 513.822)" fill="#20F3FF"/>
<rect width="12" height="6" transform="matrix(1 0 0 -1 1117.59 513.822)" fill="#20F3FF"/>
<rect width="12" height="6" transform="matrix(1 0 0 -1 1133.59 513.822)" fill="#20F3FF"/>
<rect width="12" height="6" transform="matrix(1 0 0 -1 1149.59 513.822)" fill="#20F3FF"/>
<rect width="12" height="6" transform="matrix(1 0 0 -1 1165.59 513.822)" fill="#20F3FF"/>
<rect width="12" height="6" transform="matrix(1 0 0 -1 1181.59 513.822)" fill="#20F3FF"/>
<rect width="12" height="6" transform="matrix(1 0 0 -1 1197.59 513.822)" fill="#20F3FF"/>
<rect width="12" height="6" transform="matrix(1 0 0 -1 1213.59 513.822)" fill="#20F3FF"/>
<rect width="12" height="6" transform="matrix(1 0 0 -1 1229.59 513.822)" fill="#20F3FF"/>
<rect width="12" height="6" transform="matrix(1 0 0 -1 1245.59 513.822)" fill="#20F3FF"/>
<rect width="12" height="6" transform="matrix(1 0 0 -1 1261.59 513.822)" fill="#20F3FF"/>
<rect width="12" height="6" transform="matrix(1 0 0 -1 1277.59 513.822)" fill="#20F3FF"/>
<rect width="12" height="6" transform="matrix(1 0 0 -1 1293.59 513.822)" fill="#20F3FF"/>
<rect width="12" height="6" transform="matrix(1 0 0 -1 1309.59 513.822)" fill="#20F3FF"/>
<rect width="12" height="6" transform="matrix(1 0 0 -1 1325.59 513.822)" fill="#20F3FF"/>
<rect width="12" height="6" transform="matrix(1 0 0 -1 1341.59 513.822)" fill="#20F3FF"/>
<rect width="12" height="6" transform="matrix(1 0 0 -1 1357.59 513.822)" fill="#20F3FF"/>
<rect width="12" height="6" transform="matrix(1 0 0 -1 1373.59 513.822)" fill="#20F3FF"/>
<rect width="12" height="6" transform="matrix(1 0 0 -1 1389.59 513.822)" fill="#20F3FF"/>
<rect width="12" height="6" transform="matrix(1 0 0 -1 1405.59 513.822)" fill="#20F3FF"/>
<rect width="12" height="6" transform="matrix(1 0 0 -1 1421.59 513.822)" fill="#20F3FF"/>
<rect width="12" height="6" transform="matrix(1 0 0 -1 1437.59 513.822)" fill="#20F3FF"/>
<rect width="12" height="6" transform="matrix(1 0 0 -1 1453.59 513.822)" fill="#20F3FF"/>
<rect width="12" height="6" transform="matrix(1 0 0 -1 1469.59 513.822)" fill="#20F3FF"/>
<rect width="12" height="6" transform="matrix(1 0 0 -1 1485.59 513.822)" fill="#20F3FF"/>
<rect width="12" height="6" transform="matrix(1 0 0 -1 1501.59 513.822)" fill="#20F3FF"/>
<rect width="12" height="6" transform="matrix(1 0 0 -1 1517.59 513.822)" fill="#20F3FF"/>
<rect width="12" height="6" transform="matrix(1 0 0 -1 1533.59 513.822)" fill="#20F3FF"/>
<rect width="17" height="6" transform="matrix(1 0 0 -1 1549.59 513.822)" fill="#20F3FF"/>
<rect x="1616" y="42.0005" width="12" height="6" transform="rotate(90 1616 42.0005)" fill="#20F3FF"/>
<rect x="1616" y="58.0005" width="12" height="6" transform="rotate(90 1616 58.0005)" fill="#20F3FF"/>
<rect x="1616" y="74.0005" width="12" height="6" transform="rotate(90 1616 74.0005)" fill="#20F3FF"/>
<rect x="1616" y="90.0005" width="12" height="6" transform="rotate(90 1616 90.0005)" fill="#20F3FF"/>
<rect x="1616" y="106" width="12" height="6" transform="rotate(90 1616 106)" fill="#20F3FF"/>
<rect x="1616" y="122" width="12" height="6" transform="rotate(90 1616 122)" fill="#20F3FF"/>
<rect x="1616" y="138" width="12" height="6" transform="rotate(90 1616 138)" fill="#20F3FF"/>
<rect x="1616" y="154" width="12" height="6" transform="rotate(90 1616 154)" fill="#20F3FF"/>
<rect x="1616" y="170" width="12" height="6" transform="rotate(90 1616 170)" fill="#20F3FF"/>
<rect x="1616" y="186" width="12" height="6" transform="rotate(90 1616 186)" fill="#20F3FF"/>
<rect x="1616" y="202" width="12" height="6" transform="rotate(90 1616 202)" fill="#20F3FF"/>
<rect x="1616" y="218" width="12" height="6" transform="rotate(90 1616 218)" fill="#20F3FF"/>
<rect x="1616" y="234" width="12" height="6" transform="rotate(90 1616 234)" fill="#20F3FF"/>
<rect x="1616" y="250" width="12" height="6" transform="rotate(90 1616 250)" fill="#20F3FF"/>
<rect x="1616" y="266" width="12" height="6" transform="rotate(90 1616 266)" fill="#20F3FF"/>
<rect x="1616" y="282" width="12" height="6" transform="rotate(90 1616 282)" fill="#20F3FF"/>
<rect x="1616" y="298" width="12" height="6" transform="rotate(90 1616 298)" fill="#20F3FF"/>
<rect x="1616" y="314" width="12" height="6" transform="rotate(90 1616 314)" fill="#20F3FF"/>
<rect x="1616" y="330" width="12" height="6" transform="rotate(90 1616 330)" fill="#20F3FF"/>
<rect x="1616" y="346" width="12" height="6" transform="rotate(90 1616 346)" fill="#20F3FF"/>
<rect x="1616" y="362" width="12" height="6" transform="rotate(90 1616 362)" fill="#20F3FF"/>
<rect x="1616" y="378" width="12" height="6" transform="rotate(90 1616 378)" fill="#20F3FF"/>
<rect x="1616" y="394" width="12" height="6" transform="rotate(90 1616 394)" fill="#20F3FF"/>
<rect x="1616" y="410" width="12" height="6" transform="rotate(90 1616 410)" fill="#20F3FF"/>
<rect x="1616" y="426" width="12" height="6" transform="rotate(90 1616 426)" fill="#20F3FF"/>
<rect x="1616" y="442" width="12" height="6" transform="rotate(90 1616 442)" fill="#20F3FF"/>
<rect x="1616" y="458" width="12" height="6" transform="rotate(90 1616 458)" fill="#20F3FF"/>
<rect x="6" y="43.0005" width="12" height="6" transform="rotate(90 6 43.0005)" fill="#20F3FF"/>
<rect x="6" y="59.0005" width="12" height="6" transform="rotate(90 6 59.0005)" fill="#20F3FF"/>
<rect x="6" y="75.0005" width="12" height="6" transform="rotate(90 6 75.0005)" fill="#20F3FF"/>
<rect x="6" y="91.0005" width="12" height="6" transform="rotate(90 6 91.0005)" fill="#20F3FF"/>
<rect x="6" y="107" width="12" height="6" transform="rotate(90 6 107)" fill="#20F3FF"/>
<rect x="6" y="123" width="12" height="6" transform="rotate(90 6 123)" fill="#20F3FF"/>
<rect x="6" y="139" width="12" height="6" transform="rotate(90 6 139)" fill="#20F3FF"/>
<rect x="6" y="155" width="12" height="6" transform="rotate(90 6 155)" fill="#20F3FF"/>
<rect x="6" y="171" width="12" height="6" transform="rotate(90 6 171)" fill="#20F3FF"/>
<rect x="6" y="187" width="12" height="6" transform="rotate(90 6 187)" fill="#20F3FF"/>
<rect x="6" y="203" width="12" height="6" transform="rotate(90 6 203)" fill="#20F3FF"/>
<rect x="6" y="219" width="12" height="6" transform="rotate(90 6 219)" fill="#20F3FF"/>
<rect x="6" y="235" width="12" height="6" transform="rotate(90 6 235)" fill="#20F3FF"/>
<rect x="6" y="251" width="12" height="6" transform="rotate(90 6 251)" fill="#20F3FF"/>
<rect x="6" y="267" width="12" height="6" transform="rotate(90 6 267)" fill="#20F3FF"/>
<rect x="6" y="283" width="12" height="6" transform="rotate(90 6 283)" fill="#20F3FF"/>
<rect x="6" y="299" width="12" height="6" transform="rotate(90 6 299)" fill="#20F3FF"/>
<rect x="6" y="315" width="12" height="6" transform="rotate(90 6 315)" fill="#20F3FF"/>
<rect x="6" y="331" width="12" height="6" transform="rotate(90 6 331)" fill="#20F3FF"/>
<rect x="6" y="347" width="12" height="6" transform="rotate(90 6 347)" fill="#20F3FF"/>
<rect x="6" y="363" width="12" height="6" transform="rotate(90 6 363)" fill="#20F3FF"/>
<rect x="6" y="379" width="12" height="6" transform="rotate(90 6 379)" fill="#20F3FF"/>
<rect x="6" y="395" width="12" height="6" transform="rotate(90 6 395)" fill="#20F3FF"/>
<rect x="6" y="411" width="12" height="6" transform="rotate(90 6 411)" fill="#20F3FF"/>
<rect x="6" y="427" width="12" height="6" transform="rotate(90 6 427)" fill="#20F3FF"/>
<rect x="6" y="443" width="12" height="6" transform="rotate(90 6 443)" fill="#20F3FF"/>
<rect x="6" y="459" width="12" height="6" transform="rotate(90 6 459)" fill="#20F3FF"/>
<rect x="1558.14" y="37.949" width="10.2577" height="12.4816" fill="#00E5FF" fill-opacity="0.1"/>
<rect x="1539.68" y="37.949" width="10.2577" height="12.4816" fill="#00E5FF" fill-opacity="0.1"/>
<rect x="1539.68" y="60.4158" width="10.2577" height="12.4816" fill="#00E5FF" fill-opacity="0.1"/>
<rect x="1521.21" y="37.949" width="10.2577" height="12.4816" fill="#00E5FF" fill-opacity="0.1"/>
<rect x="1558.14" y="60.4158" width="10.2577" height="12.4816" fill="#00E5FF" fill-opacity="0.1"/>
<rect x="1558.14" y="82.8826" width="10.2577" height="12.4816" fill="#00E5FF" fill-opacity="0.1"/>
<rect x="44.108" y="50.4304" width="12.4816" height="10.2577" transform="rotate(-90 44.108 50.4304)" fill="#00E5FF" fill-opacity="0.1"/>
<rect x="44.108" y="72.8972" width="12.4816" height="10.2577" transform="rotate(-90 44.108 72.8972)" fill="#00E5FF" fill-opacity="0.1"/>
<rect x="62.5719" y="72.8972" width="12.4816" height="10.2577" transform="rotate(-90 62.5719 72.8972)" fill="#00E5FF" fill-opacity="0.1"/>
<rect x="44.108" y="95.364" width="12.4816" height="10.2577" transform="rotate(-90 44.108 95.364)" fill="#00E5FF" fill-opacity="0.1"/>
<rect x="62.5719" y="50.4304" width="12.4816" height="10.2577" transform="rotate(-90 62.5719 50.4304)" fill="#00E5FF" fill-opacity="0.1"/>
<rect x="81.0356" y="50.4304" width="12.4816" height="10.2577" transform="rotate(-90 81.0356 50.4304)" fill="#00E5FF" fill-opacity="0.1"/>
<rect x="1570.45" y="467.315" width="12.4816" height="10.2577" transform="rotate(90 1570.45 467.315)" fill="#00E5FF" fill-opacity="0.1"/>
<rect x="1570.45" y="444.848" width="12.4816" height="10.2577" transform="rotate(90 1570.45 444.848)" fill="#00E5FF" fill-opacity="0.1"/>
<rect x="1551.99" y="444.848" width="12.4816" height="10.2577" transform="rotate(90 1551.99 444.848)" fill="#00E5FF" fill-opacity="0.1"/>
<rect x="1570.45" y="422.381" width="12.4816" height="10.2577" transform="rotate(90 1570.45 422.381)" fill="#00E5FF" fill-opacity="0.1"/>
<rect x="1551.99" y="467.315" width="12.4816" height="10.2577" transform="rotate(90 1551.99 467.315)" fill="#00E5FF" fill-opacity="0.1"/>
<rect x="1533.52" y="467.315" width="12.4816" height="10.2577" transform="rotate(90 1533.52 467.315)" fill="#00E5FF" fill-opacity="0.1"/>
<rect x="44.108" y="467.315" width="10.2577" height="12.4816" transform="rotate(180 44.108 467.315)" fill="#00E5FF" fill-opacity="0.1"/>
<rect x="62.5718" y="467.315" width="10.2577" height="12.4816" transform="rotate(180 62.5718 467.315)" fill="#00E5FF" fill-opacity="0.1"/>
<rect x="62.5718" y="444.848" width="10.2577" height="12.4816" transform="rotate(180 62.5718 444.848)" fill="#00E5FF" fill-opacity="0.1"/>
<rect x="81.0356" y="467.315" width="10.2577" height="12.4816" transform="rotate(180 81.0356 467.315)" fill="#00E5FF" fill-opacity="0.1"/>
<rect x="44.108" y="444.848" width="10.2577" height="12.4816" transform="rotate(180 44.108 444.848)" fill="#00E5FF" fill-opacity="0.1"/>
<rect x="44.108" y="422.381" width="10.2577" height="12.4816" transform="rotate(180 44.108 422.381)" fill="#00E5FF" fill-opacity="0.1"/>
<path d="M568.338 265.94H573.352C574.333 265.94 575.023 265.741 575.422 265.342C575.851 264.913 576.066 264.208 576.066 263.226V249.196C576.066 248.215 575.851 247.525 575.422 247.126C575.023 246.697 574.333 246.482 573.352 246.482H568.338C568.001 246.482 567.832 246.651 567.832 246.988V265.434C567.832 265.772 568.001 265.94 568.338 265.94ZM561.99 270.034V242.388C561.99 241.744 562.312 241.422 562.956 241.422H574.318C576.71 241.422 578.565 242.082 579.884 243.4C581.233 244.688 581.908 246.528 581.908 248.92V263.502C581.908 265.894 581.233 267.75 579.884 269.068C578.565 270.356 576.71 271 574.318 271H562.956C562.312 271 561.99 270.678 561.99 270.034ZM592.292 271H588.382C587.738 271 587.416 270.678 587.416 270.034V242.388C587.416 241.744 587.738 241.422 588.382 241.422H599.33C601.722 241.422 603.592 242.082 604.942 243.4C606.291 244.719 606.966 246.574 606.966 248.966V252.554C606.966 256.02 605.601 258.32 602.872 259.454V259.638L607.794 269.896C608.07 270.632 607.809 271 607.012 271H603.286C602.734 271 602.335 270.939 602.09 270.816C601.844 270.694 601.645 270.433 601.492 270.034L596.892 260.098H593.81C593.442 260.098 593.258 260.267 593.258 260.604V270.034C593.258 270.678 592.936 271 592.292 271ZM593.764 255.406H598.272C599.253 255.406 599.974 255.207 600.434 254.808C600.894 254.379 601.124 253.704 601.124 252.784V249.196C601.124 248.246 600.894 247.556 600.434 247.126C599.974 246.697 599.253 246.482 598.272 246.482H593.764C593.426 246.482 593.258 246.651 593.258 246.988V254.9C593.258 255.238 593.426 255.406 593.764 255.406ZM615.654 271H611.238C610.686 271 610.502 270.678 610.686 270.034L617.954 242.388C618.169 241.744 618.629 241.422 619.334 241.422H625.452C626.219 241.422 626.679 241.744 626.832 242.388L634.1 270.034C634.284 270.678 634.1 271 633.548 271H629.132C628.795 271 628.565 270.939 628.442 270.816C628.319 270.663 628.227 270.402 628.166 270.034L626.878 264.974H617.908L616.62 270.034C616.559 270.402 616.451 270.663 616.298 270.816C616.175 270.939 615.961 271 615.654 271ZM622.324 246.988L619.012 260.282H625.82L622.508 246.988H622.324ZM650.184 271H645.308C642.885 271 641.014 270.356 639.696 269.068C638.377 267.78 637.718 265.925 637.718 263.502V248.92C637.718 246.498 638.377 244.642 639.696 243.354C641.014 242.066 642.885 241.422 645.308 241.422H650.184C652.576 241.422 654.431 242.082 655.75 243.4C657.068 244.688 657.728 246.528 657.728 248.92V250.3C657.728 250.975 657.406 251.312 656.762 251.312H652.852C652.208 251.312 651.886 250.975 651.886 250.3V249.196C651.886 248.215 651.686 247.525 651.288 247.126C650.889 246.697 650.199 246.482 649.218 246.482H646.228C645.277 246.482 644.587 246.697 644.158 247.126C643.759 247.525 643.56 248.215 643.56 249.196V263.226C643.56 264.208 643.759 264.913 644.158 265.342C644.587 265.741 645.277 265.94 646.228 265.94H649.218C650.199 265.94 650.889 265.741 651.288 265.342C651.686 264.913 651.886 264.208 651.886 263.226V260.328C651.886 259.991 651.717 259.822 651.38 259.822H648.62C647.976 259.822 647.654 259.5 647.654 258.856V255.728C647.654 255.084 647.976 254.762 648.62 254.762H656.67C657.375 254.762 657.728 255.115 657.728 255.82V263.502C657.728 265.894 657.068 267.75 655.75 269.068C654.431 270.356 652.576 271 650.184 271ZM680.573 265.894H682.505C683.793 265.894 684.529 265.281 684.713 264.054L679.699 258.166C678.963 258.197 678.442 258.442 678.135 258.902C677.859 259.362 677.721 260.144 677.721 261.248V263.226C677.721 264.177 677.936 264.867 678.365 265.296C678.825 265.695 679.561 265.894 680.573 265.894ZM682.505 271H679.699C677.277 271 675.406 270.356 674.087 269.068C672.769 267.78 672.109 265.94 672.109 263.548V260.88C672.109 259.347 672.508 257.998 673.305 256.832C674.133 255.636 675.283 254.946 676.755 254.762C675.559 253.198 674.961 251.404 674.961 249.38V248.874C674.961 246.513 675.667 244.688 677.077 243.4C678.519 242.082 680.466 241.422 682.919 241.422H684.437C686.86 241.422 688.731 242.066 690.049 243.354C691.368 244.642 692.027 246.482 692.027 248.874V250.438C692.027 251.113 691.705 251.45 691.061 251.45H687.151C686.507 251.45 686.185 251.113 686.185 250.438V248.966C686.185 248.016 686.001 247.341 685.633 246.942C685.265 246.513 684.683 246.298 683.885 246.298H683.517C682.628 246.298 681.984 246.513 681.585 246.942C681.187 247.341 680.987 248.016 680.987 248.966V249.564C680.987 250.76 681.662 252.125 683.011 253.658L685.173 256.142H695.385C696.029 256.142 696.351 256.48 696.351 257.154V260.282C696.351 260.926 696.029 261.248 695.385 261.248H689.405L696.903 270.172C697.057 270.356 697.103 270.54 697.041 270.724C696.98 270.908 696.842 271 696.627 271H691.705C690.969 271 690.433 270.786 690.095 270.356L688.071 267.964C687.734 269.038 687.121 269.82 686.231 270.31C685.373 270.77 684.131 271 682.505 271ZM718.242 265.94H723.256C724.238 265.94 724.928 265.741 725.326 265.342C725.756 264.913 725.97 264.208 725.97 263.226V249.196C725.97 248.215 725.756 247.525 725.326 247.126C724.928 246.697 724.238 246.482 723.256 246.482H718.242C717.905 246.482 717.736 246.651 717.736 246.988V265.434C717.736 265.772 717.905 265.94 718.242 265.94ZM711.894 270.034V242.388C711.894 241.744 712.216 241.422 712.86 241.422H724.222C726.614 241.422 728.47 242.082 729.788 243.4C731.138 244.688 731.812 246.528 731.812 248.92V263.502C731.812 265.894 731.138 267.75 729.788 269.068C728.47 270.356 726.614 271 724.222 271H712.86C712.216 271 711.894 270.678 711.894 270.034ZM742.196 271H738.286C737.642 271 737.32 270.678 737.32 270.034V242.388C737.32 241.744 737.642 241.422 738.286 241.422H749.234C751.626 241.422 753.497 242.082 754.846 243.4C756.195 244.719 756.87 246.574 756.87 248.966V252.554C756.87 256.02 755.505 258.32 752.776 259.454V259.638L757.698 269.896C757.974 270.632 757.713 271 756.916 271H753.19C752.638 271 752.239 270.939 751.994 270.816C751.749 270.694 751.549 270.433 751.396 270.034L746.796 260.098H743.714C743.346 260.098 743.162 260.267 743.162 260.604V270.034C743.162 270.678 742.84 271 742.196 271ZM743.668 255.406H748.176C749.157 255.406 749.878 255.207 750.338 254.808C750.798 254.379 751.028 253.704 751.028 252.784V249.196C751.028 248.246 750.798 247.556 750.338 247.126C749.878 246.697 749.157 246.482 748.176 246.482H743.668C743.331 246.482 743.162 246.651 743.162 246.988V254.9C743.162 255.238 743.331 255.406 743.668 255.406ZM770.526 265.94H773.792C774.774 265.94 775.464 265.741 775.862 265.342C776.292 264.913 776.506 264.208 776.506 263.226V249.196C776.506 248.215 776.292 247.525 775.862 247.126C775.464 246.697 774.774 246.482 773.792 246.482H770.526C769.545 246.482 768.855 246.697 768.456 247.126C768.058 247.525 767.858 248.215 767.858 249.196V263.226C767.858 264.208 768.058 264.913 768.456 265.342C768.855 265.741 769.545 265.94 770.526 265.94ZM774.758 271H769.606C767.184 271 765.313 270.356 763.994 269.068C762.676 267.78 762.016 265.925 762.016 263.502V248.92C762.016 246.498 762.676 244.642 763.994 243.354C765.313 242.066 767.184 241.422 769.606 241.422H774.758C777.181 241.422 779.052 242.066 780.37 243.354C781.689 244.642 782.348 246.498 782.348 248.92V263.502C782.348 265.925 781.689 267.78 780.37 269.068C779.052 270.356 777.181 271 774.758 271ZM792.733 271H788.823C788.179 271 787.857 270.678 787.857 270.034V242.388C787.857 241.744 788.179 241.422 788.823 241.422H800.047C802.439 241.422 804.295 242.082 805.613 243.4C806.932 244.688 807.591 246.528 807.591 248.92V253.336C807.591 255.728 806.932 257.584 805.613 258.902C804.295 260.19 802.439 260.834 800.047 260.834H794.251C793.883 260.834 793.699 261.003 793.699 261.34V270.034C793.699 270.678 793.377 271 792.733 271ZM794.205 255.728H799.081C800.063 255.728 800.753 255.529 801.151 255.13C801.55 254.701 801.749 254.011 801.749 253.06V249.196C801.749 248.215 801.55 247.525 801.151 247.126C800.753 246.697 800.063 246.482 799.081 246.482H794.205C793.868 246.482 793.699 246.651 793.699 246.988V255.222C793.699 255.56 793.868 255.728 794.205 255.728ZM841.999 241.422H848.807C849.451 241.422 849.773 241.744 849.773 242.388V270.034C849.773 270.678 849.451 271 848.807 271H845.035C844.391 271 844.069 270.678 844.069 270.034V248.23H843.885L839.193 263.64C839.009 264.254 838.626 264.56 838.043 264.56H834.179C833.597 264.56 833.213 264.254 833.029 263.64L828.245 248.184H828.061V270.034C828.061 270.402 828 270.663 827.877 270.816C827.755 270.939 827.494 271 827.095 271H823.323C822.679 271 822.357 270.678 822.357 270.034V242.388C822.357 241.744 822.679 241.422 823.323 241.422H830.177C830.607 241.422 830.898 241.637 831.051 242.066L835.927 258.304H836.203L841.125 242.066C841.217 241.637 841.509 241.422 841.999 241.422ZM863.784 265.94H867.05C868.031 265.94 868.721 265.741 869.12 265.342C869.549 264.913 869.764 264.208 869.764 263.226V249.196C869.764 248.215 869.549 247.525 869.12 247.126C868.721 246.697 868.031 246.482 867.05 246.482H863.784C862.803 246.482 862.113 246.697 861.714 247.126C861.315 247.525 861.116 248.215 861.116 249.196V263.226C861.116 264.208 861.315 264.913 861.714 265.342C862.113 265.741 862.803 265.94 863.784 265.94ZM868.016 271H862.864C860.441 271 858.571 270.356 857.252 269.068C855.933 267.78 855.274 265.925 855.274 263.502V248.92C855.274 246.498 855.933 244.642 857.252 243.354C858.571 242.066 860.441 241.422 862.864 241.422H868.016C870.439 241.422 872.309 242.066 873.628 243.354C874.947 244.642 875.606 246.498 875.606 248.92V263.502C875.606 265.925 874.947 267.78 873.628 269.068C872.309 270.356 870.439 271 868.016 271ZM885.899 271H882.081C881.437 271 881.115 270.678 881.115 270.034V242.388C881.115 241.744 881.437 241.422 882.081 241.422H885.531C886.175 241.422 886.604 241.637 886.819 242.066L896.111 259.5H896.295V242.388C896.295 241.744 896.617 241.422 897.261 241.422H901.079C901.723 241.422 902.045 241.744 902.045 242.388V270.034C902.045 270.678 901.723 271 901.079 271H897.721C897.046 271 896.556 270.694 896.249 270.08L887.049 252.968H886.865V270.034C886.865 270.678 886.543 271 885.899 271ZM924.031 271H908.989C908.345 271 908.023 270.678 908.023 270.034V242.388C908.023 241.744 908.345 241.422 908.989 241.422H924.031C924.645 241.422 924.951 241.744 924.951 242.388V245.516C924.951 246.16 924.645 246.482 924.031 246.482H914.417C914.049 246.482 913.865 246.651 913.865 246.988V252.968C913.865 253.306 914.049 253.474 914.417 253.474H922.283C922.927 253.474 923.249 253.796 923.249 254.44V257.568C923.249 258.212 922.927 258.534 922.283 258.534H914.417C914.049 258.534 913.865 258.703 913.865 259.04V265.434C913.865 265.772 914.049 265.94 914.417 265.94H924.031C924.645 265.94 924.951 266.262 924.951 266.906V270.034C924.951 270.678 924.645 271 924.031 271ZM940.891 271H936.981C936.337 271 936.015 270.678 936.015 270.034V260.19L927.597 242.434C927.474 242.158 927.474 241.928 927.597 241.744C927.75 241.53 927.965 241.422 928.241 241.422H933.117C933.608 241.422 933.976 241.744 934.221 242.388L938.821 253.566H939.143L943.651 242.388C943.866 241.744 944.234 241.422 944.755 241.422H949.631C949.938 241.422 950.152 241.514 950.275 241.698C950.428 241.882 950.428 242.128 950.275 242.434L941.857 260.19V270.034C941.857 270.678 941.535 271 940.891 271ZM968.782 271H964.872C964.228 271 963.906 270.678 963.906 270.034V242.388C963.906 241.744 964.228 241.422 964.872 241.422H968.782C969.426 241.422 969.748 241.744 969.748 242.388V253.198C969.748 253.536 969.932 253.704 970.3 253.704H978.074C978.411 253.704 978.58 253.536 978.58 253.198V242.388C978.58 241.744 978.902 241.422 979.546 241.422H983.456C984.1 241.422 984.422 241.744 984.422 242.388V270.034C984.422 270.678 984.1 271 983.456 271H979.546C978.902 271 978.58 270.678 978.58 270.034V259.27C978.58 258.933 978.411 258.764 978.074 258.764H970.3C969.932 258.764 969.748 258.933 969.748 259.27V270.034C969.748 270.678 969.426 271 968.782 271ZM1006.42 271H991.376C990.732 271 990.41 270.678 990.41 270.034V242.388C990.41 241.744 990.732 241.422 991.376 241.422H1006.42C1007.03 241.422 1007.34 241.744 1007.34 242.388V245.516C1007.34 246.16 1007.03 246.482 1006.42 246.482H996.804C996.436 246.482 996.252 246.651 996.252 246.988V252.968C996.252 253.306 996.436 253.474 996.804 253.474H1004.67C1005.31 253.474 1005.64 253.796 1005.64 254.44V257.568C1005.64 258.212 1005.31 258.534 1004.67 258.534H996.804C996.436 258.534 996.252 258.703 996.252 259.04V265.434C996.252 265.772 996.436 265.94 996.804 265.94H1006.42C1007.03 265.94 1007.34 266.262 1007.34 266.906V270.034C1007.34 270.678 1007.03 271 1006.42 271ZM1017.3 271H1013.39C1012.74 271 1012.42 270.678 1012.42 270.034V242.388C1012.42 241.744 1012.74 241.422 1013.39 241.422H1024.34C1026.73 241.422 1028.6 242.082 1029.95 243.4C1031.3 244.719 1031.97 246.574 1031.97 248.966V252.554C1031.97 256.02 1030.61 258.32 1027.88 259.454V259.638L1032.8 269.896C1033.08 270.632 1032.81 271 1032.02 271H1028.29C1027.74 271 1027.34 270.939 1027.1 270.816C1026.85 270.694 1026.65 270.433 1026.5 270.034L1021.9 260.098H1018.82C1018.45 260.098 1018.26 260.267 1018.26 260.604V270.034C1018.26 270.678 1017.94 271 1017.3 271ZM1018.77 255.406H1023.28C1024.26 255.406 1024.98 255.207 1025.44 254.808C1025.9 254.379 1026.13 253.704 1026.13 252.784V249.196C1026.13 248.246 1025.9 247.556 1025.44 247.126C1024.98 246.697 1024.26 246.482 1023.28 246.482H1018.77C1018.43 246.482 1018.26 246.651 1018.26 246.988V254.9C1018.26 255.238 1018.43 255.406 1018.77 255.406ZM1053.59 271H1038.54C1037.9 271 1037.58 270.678 1037.58 270.034V242.388C1037.58 241.744 1037.9 241.422 1038.54 241.422H1053.59C1054.2 241.422 1054.51 241.744 1054.51 242.388V245.516C1054.51 246.16 1054.2 246.482 1053.59 246.482H1043.97C1043.6 246.482 1043.42 246.651 1043.42 246.988V252.968C1043.42 253.306 1043.6 253.474 1043.97 253.474H1051.84C1052.48 253.474 1052.8 253.796 1052.8 254.44V257.568C1052.8 258.212 1052.48 258.534 1051.84 258.534H1043.97C1043.6 258.534 1043.42 258.703 1043.42 259.04V265.434C1043.42 265.772 1043.6 265.94 1043.97 265.94H1053.59C1054.2 265.94 1054.51 266.262 1054.51 266.906V270.034C1054.51 270.678 1054.2 271 1053.59 271Z" fill="#00E5FF" fill-opacity="0.6"/>
</svg>
