<svg width="1616" height="514" viewBox="0 0 1616 514" fill="none" xmlns="http://www.w3.org/2000/svg">
<path d="M1569 6.00049H48L6 43.0005V473L47 508L1563 507.5L1610 473V42.0005L1569 6.00049Z" fill="#001636"/>
<path d="M45.2505 8.56812L37.6219 15.0338L33.7425 10.4567L41.3711 3.99099L45.2505 8.56812Z" fill="#20F3FF"/>
<path d="M35.0825 17.3767L27.454 23.8424L23.3577 19.0095L30.9863 12.5438L35.0825 17.3767Z" fill="#20F3FF"/>
<path d="M25.6484 25.7424L18.0199 32.2081L13.9998 27.465L21.6283 20.9993L25.6484 25.7424Z" fill="#20F3FF"/>
<path d="M15.5107 34.5852L7.87564 41.0432L4.00087 36.4621L11.636 30.0041L15.5107 34.5852Z" fill="#20F3FF"/>
<path d="M1574.95 3L1582.48 9.58321L1578.53 14.0996L1571 7.51643L1574.95 3Z" fill="#20F3FF"/>
<path d="M1584.95 11.998L1592.48 18.5813L1588.53 23.0977L1581 16.5145L1584.95 11.998Z" fill="#20F3FF"/>
<path d="M1594.96 20.998L1602.48 27.5813L1598.53 32.0977L1591.01 25.5145L1594.96 20.998Z" fill="#20F3FF"/>
<path d="M1604.96 29.998L1612.49 36.5813L1608.54 41.0977L1601.01 34.5145L1604.96 29.998Z" fill="#20F3FF"/>
<rect x="47.9995" width="12" height="6" fill="#20F3FF"/>
<rect x="63.9995" width="12" height="6" fill="#20F3FF"/>
<rect x="79.9995" width="12" height="6" fill="#20F3FF"/>
<rect x="95.9995" width="12" height="6" fill="#20F3FF"/>
<rect x="112" width="12" height="6" fill="#20F3FF"/>
<rect x="128" width="12" height="6" fill="#20F3FF"/>
<rect x="144" width="12" height="6" fill="#20F3FF"/>
<rect x="160" width="12" height="6" fill="#20F3FF"/>
<rect x="176" width="12" height="6" fill="#20F3FF"/>
<rect x="192" width="12" height="6" fill="#20F3FF"/>
<rect x="208" width="12" height="6" fill="#20F3FF"/>
<rect x="224" width="12" height="6" fill="#20F3FF"/>
<rect x="240" width="12" height="6" fill="#20F3FF"/>
<rect x="256" width="12" height="6" fill="#20F3FF"/>
<rect x="272" width="12" height="6" fill="#20F3FF"/>
<rect x="288" width="12" height="6" fill="#20F3FF"/>
<rect x="304" width="12" height="6" fill="#20F3FF"/>
<rect x="320" width="12" height="6" fill="#20F3FF"/>
<rect x="336" width="12" height="6" fill="#20F3FF"/>
<rect x="352" width="12" height="6" fill="#20F3FF"/>
<rect x="368" width="12" height="6" fill="#20F3FF"/>
<rect x="384" width="12" height="6" fill="#20F3FF"/>
<rect x="400" width="12" height="6" fill="#20F3FF"/>
<rect x="416" width="12" height="6" fill="#20F3FF"/>
<rect x="432" width="12" height="6" fill="#20F3FF"/>
<rect x="448" width="12" height="6" fill="#20F3FF"/>
<rect x="464" width="12" height="6" fill="#20F3FF"/>
<rect x="480" width="12" height="6" fill="#20F3FF"/>
<rect x="496" width="12" height="6" fill="#20F3FF"/>
<rect x="512" width="12" height="6" fill="#20F3FF"/>
<rect x="528" width="12" height="6" fill="#20F3FF"/>
<rect x="544" width="12" height="6" fill="#20F3FF"/>
<rect x="560" width="12" height="6" fill="#20F3FF"/>
<rect x="576" width="12" height="6" fill="#20F3FF"/>
<rect x="592" width="12" height="6" fill="#20F3FF"/>
<rect x="608" width="12" height="6" fill="#20F3FF"/>
<rect x="624" width="12" height="6" fill="#20F3FF"/>
<rect x="640" width="12" height="6" fill="#20F3FF"/>
<rect x="656" width="12" height="6" fill="#20F3FF"/>
<rect x="672" width="12" height="6" fill="#20F3FF"/>
<rect x="688" width="12" height="6" fill="#20F3FF"/>
<rect x="704" width="12" height="6" fill="#20F3FF"/>
<rect x="720" width="12" height="6" fill="#20F3FF"/>
<rect x="736" width="12" height="6" fill="#20F3FF"/>
<rect x="752" width="12" height="6" fill="#20F3FF"/>
<rect x="768" width="12" height="6" fill="#20F3FF"/>
<rect x="784" width="12" height="6" fill="#20F3FF"/>
<rect x="800" width="12" height="6" fill="#20F3FF"/>
<rect x="816" width="12" height="6" fill="#20F3FF"/>
<rect x="832" width="12" height="6" fill="#20F3FF"/>
<rect x="848" width="12" height="6" fill="#20F3FF"/>
<rect x="864" width="12" height="6" fill="#20F3FF"/>
<rect x="880" width="12" height="6" fill="#20F3FF"/>
<rect x="896" width="12" height="6" fill="#20F3FF"/>
<rect x="912" width="12" height="6" fill="#20F3FF"/>
<rect x="928" width="12" height="6" fill="#20F3FF"/>
<rect x="944" width="12" height="6" fill="#20F3FF"/>
<rect x="960" width="12" height="6" fill="#20F3FF"/>
<rect x="976" width="12" height="6" fill="#20F3FF"/>
<rect x="992" width="12" height="6" fill="#20F3FF"/>
<rect x="1008" width="12" height="6" fill="#20F3FF"/>
<rect x="1024" width="12" height="6" fill="#20F3FF"/>
<rect x="1040" width="12" height="6" fill="#20F3FF"/>
<rect x="1056" width="12" height="6" fill="#20F3FF"/>
<rect x="1072" width="12" height="6" fill="#20F3FF"/>
<rect x="1088" width="12" height="6" fill="#20F3FF"/>
<rect x="1104" width="12" height="6" fill="#20F3FF"/>
<rect x="1120" width="12" height="6" fill="#20F3FF"/>
<rect x="1136" width="12" height="6" fill="#20F3FF"/>
<rect x="1152" width="12" height="6" fill="#20F3FF"/>
<rect x="1168" width="12" height="6" fill="#20F3FF"/>
<rect x="1184" width="12" height="6" fill="#20F3FF"/>
<rect x="1200" width="12" height="6" fill="#20F3FF"/>
<rect x="1216" width="12" height="6" fill="#20F3FF"/>
<rect x="1232" width="12" height="6" fill="#20F3FF"/>
<rect x="1248" width="12" height="6" fill="#20F3FF"/>
<rect x="1264" width="12" height="6" fill="#20F3FF"/>
<rect x="1280" width="12" height="6" fill="#20F3FF"/>
<rect x="1296" width="12" height="6" fill="#20F3FF"/>
<rect x="1312" width="12" height="6" fill="#20F3FF"/>
<rect x="1328" width="12" height="6" fill="#20F3FF"/>
<rect x="1344" width="12" height="6" fill="#20F3FF"/>
<rect x="1360" width="12" height="6" fill="#20F3FF"/>
<rect x="1376" width="12" height="6" fill="#20F3FF"/>
<rect x="1392" width="12" height="6" fill="#20F3FF"/>
<rect x="1408" width="12" height="6" fill="#20F3FF"/>
<rect x="1424" width="12" height="6" fill="#20F3FF"/>
<rect x="1440" width="12" height="6" fill="#20F3FF"/>
<rect x="1456" width="12" height="6" fill="#20F3FF"/>
<rect x="1472" width="12" height="6" fill="#20F3FF"/>
<rect x="1488" width="12" height="6" fill="#20F3FF"/>
<rect x="1504" width="12" height="6" fill="#20F3FF"/>
<rect x="1520" width="12" height="6" fill="#20F3FF"/>
<rect x="1536" width="12" height="6" fill="#20F3FF"/>
<rect x="1552" width="17" height="6" fill="#20F3FF"/>
<path d="M42.8413 505.254L35.2128 498.788L31.3333 503.365L38.9619 509.831L42.8413 505.254Z" fill="#20F3FF"/>
<path d="M32.6733 496.445L25.0448 489.98L20.9485 494.813L28.5771 501.278L32.6733 496.445Z" fill="#20F3FF"/>
<path d="M23.2393 488.08L15.6107 481.614L11.5906 486.357L19.2191 492.823L23.2393 488.08Z" fill="#20F3FF"/>
<path d="M13.1016 479.237L5.46646 472.779L1.59169 477.36L9.22679 483.818L13.1016 479.237Z" fill="#20F3FF"/>
<path d="M1572.54 510.822L1580.07 504.239L1576.12 499.722L1568.59 506.305L1572.54 510.822Z" fill="#20F3FF"/>
<path d="M1582.54 501.824L1590.07 495.241L1586.12 490.724L1578.59 497.307L1582.54 501.824Z" fill="#20F3FF"/>
<path d="M1592.55 492.824L1600.07 486.241L1596.12 481.724L1588.6 488.307L1592.55 492.824Z" fill="#20F3FF"/>
<path d="M1602.55 483.824L1610.08 477.241L1606.13 472.724L1598.6 479.307L1602.55 483.824Z" fill="#20F3FF"/>
<rect width="12" height="6" transform="matrix(1 0 0 -1 45.5903 513.822)" fill="#20F3FF"/>
<rect width="12" height="6" transform="matrix(1 0 0 -1 61.5903 513.822)" fill="#20F3FF"/>
<rect width="12" height="6" transform="matrix(1 0 0 -1 77.5903 513.822)" fill="#20F3FF"/>
<rect width="12" height="6" transform="matrix(1 0 0 -1 93.5903 513.822)" fill="#20F3FF"/>
<rect width="12" height="6" transform="matrix(1 0 0 -1 109.59 513.822)" fill="#20F3FF"/>
<rect width="12" height="6" transform="matrix(1 0 0 -1 125.59 513.822)" fill="#20F3FF"/>
<rect width="12" height="6" transform="matrix(1 0 0 -1 141.59 513.822)" fill="#20F3FF"/>
<rect width="12" height="6" transform="matrix(1 0 0 -1 157.59 513.822)" fill="#20F3FF"/>
<rect width="12" height="6" transform="matrix(1 0 0 -1 173.59 513.822)" fill="#20F3FF"/>
<rect width="12" height="6" transform="matrix(1 0 0 -1 189.59 513.822)" fill="#20F3FF"/>
<rect width="12" height="6" transform="matrix(1 0 0 -1 205.59 513.822)" fill="#20F3FF"/>
<rect width="12" height="6" transform="matrix(1 0 0 -1 221.59 513.822)" fill="#20F3FF"/>
<rect width="12" height="6" transform="matrix(1 0 0 -1 237.59 513.822)" fill="#20F3FF"/>
<rect width="12" height="6" transform="matrix(1 0 0 -1 253.59 513.822)" fill="#20F3FF"/>
<rect width="12" height="6" transform="matrix(1 0 0 -1 269.59 513.822)" fill="#20F3FF"/>
<rect width="12" height="6" transform="matrix(1 0 0 -1 285.59 513.822)" fill="#20F3FF"/>
<rect width="12" height="6" transform="matrix(1 0 0 -1 301.59 513.822)" fill="#20F3FF"/>
<rect width="12" height="6" transform="matrix(1 0 0 -1 317.59 513.822)" fill="#20F3FF"/>
<rect width="12" height="6" transform="matrix(1 0 0 -1 333.59 513.822)" fill="#20F3FF"/>
<rect width="12" height="6" transform="matrix(1 0 0 -1 349.59 513.822)" fill="#20F3FF"/>
<rect width="12" height="6" transform="matrix(1 0 0 -1 365.59 513.822)" fill="#20F3FF"/>
<rect width="12" height="6" transform="matrix(1 0 0 -1 381.59 513.822)" fill="#20F3FF"/>
<rect width="12" height="6" transform="matrix(1 0 0 -1 397.59 513.822)" fill="#20F3FF"/>
<rect width="12" height="6" transform="matrix(1 0 0 -1 413.59 513.822)" fill="#20F3FF"/>
<rect width="12" height="6" transform="matrix(1 0 0 -1 429.59 513.822)" fill="#20F3FF"/>
<rect width="12" height="6" transform="matrix(1 0 0 -1 445.59 513.822)" fill="#20F3FF"/>
<rect width="12" height="6" transform="matrix(1 0 0 -1 461.59 513.822)" fill="#20F3FF"/>
<rect width="12" height="6" transform="matrix(1 0 0 -1 477.59 513.822)" fill="#20F3FF"/>
<rect width="12" height="6" transform="matrix(1 0 0 -1 493.59 513.822)" fill="#20F3FF"/>
<rect width="12" height="6" transform="matrix(1 0 0 -1 509.59 513.822)" fill="#20F3FF"/>
<rect width="12" height="6" transform="matrix(1 0 0 -1 525.59 513.822)" fill="#20F3FF"/>
<rect width="12" height="6" transform="matrix(1 0 0 -1 541.59 513.822)" fill="#20F3FF"/>
<rect width="12" height="6" transform="matrix(1 0 0 -1 557.59 513.822)" fill="#20F3FF"/>
<rect width="12" height="6" transform="matrix(1 0 0 -1 573.59 513.822)" fill="#20F3FF"/>
<rect width="12" height="6" transform="matrix(1 0 0 -1 589.59 513.822)" fill="#20F3FF"/>
<rect width="12" height="6" transform="matrix(1 0 0 -1 605.59 513.822)" fill="#20F3FF"/>
<rect width="12" height="6" transform="matrix(1 0 0 -1 621.59 513.822)" fill="#20F3FF"/>
<rect width="12" height="6" transform="matrix(1 0 0 -1 637.59 513.822)" fill="#20F3FF"/>
<rect width="12" height="6" transform="matrix(1 0 0 -1 653.59 513.822)" fill="#20F3FF"/>
<rect width="12" height="6" transform="matrix(1 0 0 -1 669.59 513.822)" fill="#20F3FF"/>
<rect width="12" height="6" transform="matrix(1 0 0 -1 685.59 513.822)" fill="#20F3FF"/>
<rect width="12" height="6" transform="matrix(1 0 0 -1 701.59 513.822)" fill="#20F3FF"/>
<rect width="12" height="6" transform="matrix(1 0 0 -1 717.59 513.822)" fill="#20F3FF"/>
<rect width="12" height="6" transform="matrix(1 0 0 -1 733.59 513.822)" fill="#20F3FF"/>
<rect width="12" height="6" transform="matrix(1 0 0 -1 749.59 513.822)" fill="#20F3FF"/>
<rect width="12" height="6" transform="matrix(1 0 0 -1 765.59 513.822)" fill="#20F3FF"/>
<rect width="12" height="6" transform="matrix(1 0 0 -1 781.59 513.822)" fill="#20F3FF"/>
<rect width="12" height="6" transform="matrix(1 0 0 -1 797.59 513.822)" fill="#20F3FF"/>
<rect width="12" height="6" transform="matrix(1 0 0 -1 813.59 513.822)" fill="#20F3FF"/>
<rect width="12" height="6" transform="matrix(1 0 0 -1 829.59 513.822)" fill="#20F3FF"/>
<rect width="12" height="6" transform="matrix(1 0 0 -1 845.59 513.822)" fill="#20F3FF"/>
<rect width="12" height="6" transform="matrix(1 0 0 -1 861.59 513.822)" fill="#20F3FF"/>
<rect width="12" height="6" transform="matrix(1 0 0 -1 877.59 513.822)" fill="#20F3FF"/>
<rect width="12" height="6" transform="matrix(1 0 0 -1 893.59 513.822)" fill="#20F3FF"/>
<rect width="12" height="6" transform="matrix(1 0 0 -1 909.59 513.822)" fill="#20F3FF"/>
<rect width="12" height="6" transform="matrix(1 0 0 -1 925.59 513.822)" fill="#20F3FF"/>
<rect width="12" height="6" transform="matrix(1 0 0 -1 941.59 513.822)" fill="#20F3FF"/>
<rect width="12" height="6" transform="matrix(1 0 0 -1 957.59 513.822)" fill="#20F3FF"/>
<rect width="12" height="6" transform="matrix(1 0 0 -1 973.59 513.822)" fill="#20F3FF"/>
<rect width="12" height="6" transform="matrix(1 0 0 -1 989.59 513.822)" fill="#20F3FF"/>
<rect width="12" height="6" transform="matrix(1 0 0 -1 1005.59 513.822)" fill="#20F3FF"/>
<rect width="12" height="6" transform="matrix(1 0 0 -1 1021.59 513.822)" fill="#20F3FF"/>
<rect width="12" height="6" transform="matrix(1 0 0 -1 1037.59 513.822)" fill="#20F3FF"/>
<rect width="12" height="6" transform="matrix(1 0 0 -1 1053.59 513.822)" fill="#20F3FF"/>
<rect width="12" height="6" transform="matrix(1 0 0 -1 1069.59 513.822)" fill="#20F3FF"/>
<rect width="12" height="6" transform="matrix(1 0 0 -1 1085.59 513.822)" fill="#20F3FF"/>
<rect width="12" height="6" transform="matrix(1 0 0 -1 1101.59 513.822)" fill="#20F3FF"/>
<rect width="12" height="6" transform="matrix(1 0 0 -1 1117.59 513.822)" fill="#20F3FF"/>
<rect width="12" height="6" transform="matrix(1 0 0 -1 1133.59 513.822)" fill="#20F3FF"/>
<rect width="12" height="6" transform="matrix(1 0 0 -1 1149.59 513.822)" fill="#20F3FF"/>
<rect width="12" height="6" transform="matrix(1 0 0 -1 1165.59 513.822)" fill="#20F3FF"/>
<rect width="12" height="6" transform="matrix(1 0 0 -1 1181.59 513.822)" fill="#20F3FF"/>
<rect width="12" height="6" transform="matrix(1 0 0 -1 1197.59 513.822)" fill="#20F3FF"/>
<rect width="12" height="6" transform="matrix(1 0 0 -1 1213.59 513.822)" fill="#20F3FF"/>
<rect width="12" height="6" transform="matrix(1 0 0 -1 1229.59 513.822)" fill="#20F3FF"/>
<rect width="12" height="6" transform="matrix(1 0 0 -1 1245.59 513.822)" fill="#20F3FF"/>
<rect width="12" height="6" transform="matrix(1 0 0 -1 1261.59 513.822)" fill="#20F3FF"/>
<rect width="12" height="6" transform="matrix(1 0 0 -1 1277.59 513.822)" fill="#20F3FF"/>
<rect width="12" height="6" transform="matrix(1 0 0 -1 1293.59 513.822)" fill="#20F3FF"/>
<rect width="12" height="6" transform="matrix(1 0 0 -1 1309.59 513.822)" fill="#20F3FF"/>
<rect width="12" height="6" transform="matrix(1 0 0 -1 1325.59 513.822)" fill="#20F3FF"/>
<rect width="12" height="6" transform="matrix(1 0 0 -1 1341.59 513.822)" fill="#20F3FF"/>
<rect width="12" height="6" transform="matrix(1 0 0 -1 1357.59 513.822)" fill="#20F3FF"/>
<rect width="12" height="6" transform="matrix(1 0 0 -1 1373.59 513.822)" fill="#20F3FF"/>
<rect width="12" height="6" transform="matrix(1 0 0 -1 1389.59 513.822)" fill="#20F3FF"/>
<rect width="12" height="6" transform="matrix(1 0 0 -1 1405.59 513.822)" fill="#20F3FF"/>
<rect width="12" height="6" transform="matrix(1 0 0 -1 1421.59 513.822)" fill="#20F3FF"/>
<rect width="12" height="6" transform="matrix(1 0 0 -1 1437.59 513.822)" fill="#20F3FF"/>
<rect width="12" height="6" transform="matrix(1 0 0 -1 1453.59 513.822)" fill="#20F3FF"/>
<rect width="12" height="6" transform="matrix(1 0 0 -1 1469.59 513.822)" fill="#20F3FF"/>
<rect width="12" height="6" transform="matrix(1 0 0 -1 1485.59 513.822)" fill="#20F3FF"/>
<rect width="12" height="6" transform="matrix(1 0 0 -1 1501.59 513.822)" fill="#20F3FF"/>
<rect width="12" height="6" transform="matrix(1 0 0 -1 1517.59 513.822)" fill="#20F3FF"/>
<rect width="12" height="6" transform="matrix(1 0 0 -1 1533.59 513.822)" fill="#20F3FF"/>
<rect width="17" height="6" transform="matrix(1 0 0 -1 1549.59 513.822)" fill="#20F3FF"/>
<rect x="1616" y="42.0005" width="12" height="6" transform="rotate(90 1616 42.0005)" fill="#20F3FF"/>
<rect x="1616" y="58.0005" width="12" height="6" transform="rotate(90 1616 58.0005)" fill="#20F3FF"/>
<rect x="1616" y="74.0005" width="12" height="6" transform="rotate(90 1616 74.0005)" fill="#20F3FF"/>
<rect x="1616" y="90.0005" width="12" height="6" transform="rotate(90 1616 90.0005)" fill="#20F3FF"/>
<rect x="1616" y="106" width="12" height="6" transform="rotate(90 1616 106)" fill="#20F3FF"/>
<rect x="1616" y="122" width="12" height="6" transform="rotate(90 1616 122)" fill="#20F3FF"/>
<rect x="1616" y="138" width="12" height="6" transform="rotate(90 1616 138)" fill="#20F3FF"/>
<rect x="1616" y="154" width="12" height="6" transform="rotate(90 1616 154)" fill="#20F3FF"/>
<rect x="1616" y="170" width="12" height="6" transform="rotate(90 1616 170)" fill="#20F3FF"/>
<rect x="1616" y="186" width="12" height="6" transform="rotate(90 1616 186)" fill="#20F3FF"/>
<rect x="1616" y="202" width="12" height="6" transform="rotate(90 1616 202)" fill="#20F3FF"/>
<rect x="1616" y="218" width="12" height="6" transform="rotate(90 1616 218)" fill="#20F3FF"/>
<rect x="1616" y="234" width="12" height="6" transform="rotate(90 1616 234)" fill="#20F3FF"/>
<rect x="1616" y="250" width="12" height="6" transform="rotate(90 1616 250)" fill="#20F3FF"/>
<rect x="1616" y="266" width="12" height="6" transform="rotate(90 1616 266)" fill="#20F3FF"/>
<rect x="1616" y="282" width="12" height="6" transform="rotate(90 1616 282)" fill="#20F3FF"/>
<rect x="1616" y="298" width="12" height="6" transform="rotate(90 1616 298)" fill="#20F3FF"/>
<rect x="1616" y="314" width="12" height="6" transform="rotate(90 1616 314)" fill="#20F3FF"/>
<rect x="1616" y="330" width="12" height="6" transform="rotate(90 1616 330)" fill="#20F3FF"/>
<rect x="1616" y="346" width="12" height="6" transform="rotate(90 1616 346)" fill="#20F3FF"/>
<rect x="1616" y="362" width="12" height="6" transform="rotate(90 1616 362)" fill="#20F3FF"/>
<rect x="1616" y="378" width="12" height="6" transform="rotate(90 1616 378)" fill="#20F3FF"/>
<rect x="1616" y="394" width="12" height="6" transform="rotate(90 1616 394)" fill="#20F3FF"/>
<rect x="1616" y="410" width="12" height="6" transform="rotate(90 1616 410)" fill="#20F3FF"/>
<rect x="1616" y="426" width="12" height="6" transform="rotate(90 1616 426)" fill="#20F3FF"/>
<rect x="1616" y="442" width="12" height="6" transform="rotate(90 1616 442)" fill="#20F3FF"/>
<rect x="1616" y="458" width="12" height="6" transform="rotate(90 1616 458)" fill="#20F3FF"/>
<rect x="6" y="43.0005" width="12" height="6" transform="rotate(90 6 43.0005)" fill="#20F3FF"/>
<rect x="6" y="59.0005" width="12" height="6" transform="rotate(90 6 59.0005)" fill="#20F3FF"/>
<rect x="6" y="75.0005" width="12" height="6" transform="rotate(90 6 75.0005)" fill="#20F3FF"/>
<rect x="6" y="91.0005" width="12" height="6" transform="rotate(90 6 91.0005)" fill="#20F3FF"/>
<rect x="6" y="107" width="12" height="6" transform="rotate(90 6 107)" fill="#20F3FF"/>
<rect x="6" y="123" width="12" height="6" transform="rotate(90 6 123)" fill="#20F3FF"/>
<rect x="6" y="139" width="12" height="6" transform="rotate(90 6 139)" fill="#20F3FF"/>
<rect x="6" y="155" width="12" height="6" transform="rotate(90 6 155)" fill="#20F3FF"/>
<rect x="6" y="171" width="12" height="6" transform="rotate(90 6 171)" fill="#20F3FF"/>
<rect x="6" y="187" width="12" height="6" transform="rotate(90 6 187)" fill="#20F3FF"/>
<rect x="6" y="203" width="12" height="6" transform="rotate(90 6 203)" fill="#20F3FF"/>
<rect x="6" y="219" width="12" height="6" transform="rotate(90 6 219)" fill="#20F3FF"/>
<rect x="6" y="235" width="12" height="6" transform="rotate(90 6 235)" fill="#20F3FF"/>
<rect x="6" y="251" width="12" height="6" transform="rotate(90 6 251)" fill="#20F3FF"/>
<rect x="6" y="267" width="12" height="6" transform="rotate(90 6 267)" fill="#20F3FF"/>
<rect x="6" y="283" width="12" height="6" transform="rotate(90 6 283)" fill="#20F3FF"/>
<rect x="6" y="299" width="12" height="6" transform="rotate(90 6 299)" fill="#20F3FF"/>
<rect x="6" y="315" width="12" height="6" transform="rotate(90 6 315)" fill="#20F3FF"/>
<rect x="6" y="331" width="12" height="6" transform="rotate(90 6 331)" fill="#20F3FF"/>
<rect x="6" y="347" width="12" height="6" transform="rotate(90 6 347)" fill="#20F3FF"/>
<rect x="6" y="363" width="12" height="6" transform="rotate(90 6 363)" fill="#20F3FF"/>
<rect x="6" y="379" width="12" height="6" transform="rotate(90 6 379)" fill="#20F3FF"/>
<rect x="6" y="395" width="12" height="6" transform="rotate(90 6 395)" fill="#20F3FF"/>
<rect x="6" y="411" width="12" height="6" transform="rotate(90 6 411)" fill="#20F3FF"/>
<rect x="6" y="427" width="12" height="6" transform="rotate(90 6 427)" fill="#20F3FF"/>
<rect x="6" y="443" width="12" height="6" transform="rotate(90 6 443)" fill="#20F3FF"/>
<rect x="6" y="459" width="12" height="6" transform="rotate(90 6 459)" fill="#20F3FF"/>
<rect x="1558.14" y="37.949" width="10.2577" height="12.4816" fill="#00E5FF" fill-opacity="0.1"/>
<rect x="1539.68" y="37.949" width="10.2577" height="12.4816" fill="#00E5FF" fill-opacity="0.1"/>
<rect x="1539.68" y="60.4158" width="10.2577" height="12.4816" fill="#00E5FF" fill-opacity="0.1"/>
<rect x="1521.21" y="37.949" width="10.2577" height="12.4816" fill="#00E5FF" fill-opacity="0.1"/>
<rect x="1558.14" y="60.4158" width="10.2577" height="12.4816" fill="#00E5FF" fill-opacity="0.1"/>
<rect x="1558.14" y="82.8826" width="10.2577" height="12.4816" fill="#00E5FF" fill-opacity="0.1"/>
<rect x="44.1079" y="50.4304" width="12.4816" height="10.2577" transform="rotate(-90 44.1079 50.4304)" fill="#00E5FF" fill-opacity="0.1"/>
<rect x="44.1079" y="72.8972" width="12.4816" height="10.2577" transform="rotate(-90 44.1079 72.8972)" fill="#00E5FF" fill-opacity="0.1"/>
<rect x="62.5718" y="72.8972" width="12.4816" height="10.2577" transform="rotate(-90 62.5718 72.8972)" fill="#00E5FF" fill-opacity="0.1"/>
<rect x="44.1079" y="95.364" width="12.4816" height="10.2577" transform="rotate(-90 44.1079 95.364)" fill="#00E5FF" fill-opacity="0.1"/>
<rect x="62.5718" y="50.4304" width="12.4816" height="10.2577" transform="rotate(-90 62.5718 50.4304)" fill="#00E5FF" fill-opacity="0.1"/>
<rect x="81.0356" y="50.4304" width="12.4816" height="10.2577" transform="rotate(-90 81.0356 50.4304)" fill="#00E5FF" fill-opacity="0.1"/>
<rect x="1570.45" y="467.315" width="12.4816" height="10.2577" transform="rotate(90 1570.45 467.315)" fill="#00E5FF" fill-opacity="0.1"/>
<rect x="1570.45" y="444.848" width="12.4816" height="10.2577" transform="rotate(90 1570.45 444.848)" fill="#00E5FF" fill-opacity="0.1"/>
<rect x="1551.99" y="444.848" width="12.4816" height="10.2577" transform="rotate(90 1551.99 444.848)" fill="#00E5FF" fill-opacity="0.1"/>
<rect x="1570.45" y="422.381" width="12.4816" height="10.2577" transform="rotate(90 1570.45 422.381)" fill="#00E5FF" fill-opacity="0.1"/>
<rect x="1551.99" y="467.315" width="12.4816" height="10.2577" transform="rotate(90 1551.99 467.315)" fill="#00E5FF" fill-opacity="0.1"/>
<rect x="1533.52" y="467.315" width="12.4816" height="10.2577" transform="rotate(90 1533.52 467.315)" fill="#00E5FF" fill-opacity="0.1"/>
<rect x="44.1079" y="467.315" width="10.2577" height="12.4816" transform="rotate(180 44.1079 467.315)" fill="#00E5FF" fill-opacity="0.1"/>
<rect x="62.5718" y="467.315" width="10.2577" height="12.4816" transform="rotate(180 62.5718 467.315)" fill="#00E5FF" fill-opacity="0.1"/>
<rect x="62.5718" y="444.848" width="10.2577" height="12.4816" transform="rotate(180 62.5718 444.848)" fill="#00E5FF" fill-opacity="0.1"/>
<rect x="81.0356" y="467.315" width="10.2577" height="12.4816" transform="rotate(180 81.0356 467.315)" fill="#00E5FF" fill-opacity="0.1"/>
<rect x="44.1079" y="444.848" width="10.2577" height="12.4816" transform="rotate(180 44.1079 444.848)" fill="#00E5FF" fill-opacity="0.1"/>
<rect x="44.1079" y="422.381" width="10.2577" height="12.4816" transform="rotate(180 44.1079 422.381)" fill="#00E5FF" fill-opacity="0.1"/>
</svg>
