<svg width="1698" height="222" viewBox="0 0 1698 222" fill="none" xmlns="http://www.w3.org/2000/svg">
<rect x="1689.82" y="190.049" width="4.09093" height="21" fill="#00E5FF"/>
<rect x="1685.73" y="169.049" width="4.09093" height="21" fill="#00E5FF"/>
<rect x="1681.64" y="149.049" width="4.09093" height="20" fill="#00E5FF"/>
<rect x="1677.55" y="129.049" width="4.09093" height="20" fill="#00E5FF"/>
<rect x="1673.45" y="107.049" width="4.09093" height="22" fill="#00E5FF"/>
<rect x="1669.36" y="88.0488" width="4.09093" height="19" fill="#00E5FF"/>
<rect x="1665.27" y="67.0488" width="4.09093" height="21" fill="#00E5FF"/>
<rect x="1661.18" y="45.0488" width="4.09093" height="22" fill="#00E5FF"/>
<rect x="1657.09" y="26.0488" width="4.09093" height="19" fill="#00E5FF"/>
<rect x="1653" y="5.04883" width="4.09093" height="21" fill="#00E5FF"/>
<rect x="1693.91" y="211.049" width="4.09093" height="6" fill="#00E5FF"/>
<rect width="3.46154" height="18" transform="matrix(-1 0 0 1 6.92383 194.049)" fill="#00E5FF"/>
<rect width="3.46154" height="17" transform="matrix(-1 0 0 1 10.3848 177.049)" fill="#00E5FF"/>
<rect width="3.46154" height="17" transform="matrix(-1 0 0 1 13.8457 160.049)" fill="#00E5FF"/>
<rect width="3.46154" height="18" transform="matrix(-1 0 0 1 17.3086 142.049)" fill="#00E5FF"/>
<rect width="3.46154" height="17" transform="matrix(-1 0 0 1 20.7695 125.049)" fill="#00E5FF"/>
<rect width="3.46154" height="17" transform="matrix(-1 0 0 1 24.2305 108.049)" fill="#00E5FF"/>
<rect width="3.46154" height="18" transform="matrix(-1 0 0 1 27.6934 90.0488)" fill="#00E5FF"/>
<rect width="3.46154" height="16" transform="matrix(-1 0 0 1 31.1543 74.0488)" fill="#00E5FF"/>
<rect width="3.46154" height="17" transform="matrix(-1 0 0 1 34.6152 57.0488)" fill="#00E5FF"/>
<rect width="3.46154" height="17" transform="matrix(-1 0 0 1 38.0781 40.0488)" fill="#00E5FF"/>
<rect width="3.46154" height="18" transform="matrix(-1 0 0 1 41.5391 22.0488)" fill="#00E5FF"/>
<rect width="4" height="17" transform="matrix(-1 0 0 1 45 5)" fill="#00E5FF"/>
<rect width="3.46154" height="5" transform="matrix(-1 0 0 1 3.46094 212.049)" fill="#00E5FF"/>
<rect x="41" width="1616" height="5" fill="#00E5FF"/>
<rect x="3" y="217" width="1691" height="5" fill="#00E5FF"/>
</svg>
