<svg width="458" height="130" viewBox="0 0 458 130" fill="none" xmlns="http://www.w3.org/2000/svg">
<rect x="20" width="412" height="10" fill="#AA9314"/>
<rect x="10" y="10" width="6" height="12" fill="#AA9314"/>
<rect y="21.6641" width="7.69131" height="86.6683" fill="#AA9314"/>
<rect x="10.4062" y="110" width="9.59161" height="10" fill="#AA9314"/>
<rect x="437.273" y="10" width="6.2217" height="12.0909" fill="#AA9314"/>
<rect x="447.688" y="22" width="10.3111" height="88" fill="#AA9314"/>
<rect x="432" y="110" width="16" height="10" fill="#AA9314"/>
<rect x="20" y="120" width="418" height="10" fill="#AA9314"/>
<rect x="19.7734" y="110" width="412.445" height="10" fill="#AA9314"/>
<rect y="22" width="450" height="88" fill="#AA9314"/>
<rect x="15.2031" y="10.8359" width="421.609" height="10.9162" fill="#AA9314"/>
<rect x="20" width="418" height="10" fill="#FFE65C"/>
<rect x="10" y="10" width="10" height="10" fill="#FFE65C"/>
<rect y="20" width="10" height="80" fill="#FFE65C"/>
<rect x="10" y="100" width="10" height="10" fill="#FFE65C"/>
<rect x="432" y="10" width="16" height="10" fill="#FFE65C"/>
<rect x="448" y="20" width="10" height="80" fill="#FFE65C"/>
<rect x="434" y="100" width="14" height="10" fill="#FFE65C"/>
<rect x="20" y="110" width="418" height="10" fill="#FFE65C"/>
<rect x="20" y="100" width="418" height="10" fill="#F3D116"/>
<rect x="10" y="20" width="438" height="80" fill="#F3D116"/>
<rect x="20" y="10" width="418" height="10" fill="#F3D116"/>
<path d="M122.4 78H102.66C101.82 78 101.4 77.58 101.4 76.74V40.68C101.4 39.84 101.82 39.42 102.66 39.42H107.76C108.6 39.42 109.02 39.84 109.02 40.68V70.68C109.02 71.12 109.26 71.34 109.74 71.34H122.4C123.2 71.34 123.6 71.78 123.6 72.66V76.74C123.6 77.58 123.2 78 122.4 78ZM149.233 78H129.613C128.773 78 128.353 77.58 128.353 76.74V40.68C128.353 39.84 128.773 39.42 129.613 39.42H149.233C150.033 39.42 150.433 39.84 150.433 40.68V44.76C150.433 45.6 150.033 46.02 149.233 46.02H136.693C136.213 46.02 135.973 46.24 135.973 46.68V54.48C135.973 54.92 136.213 55.14 136.693 55.14H146.953C147.793 55.14 148.213 55.56 148.213 56.4V60.48C148.213 61.32 147.793 61.74 146.953 61.74H136.693C136.213 61.74 135.973 61.96 135.973 62.4V70.74C135.973 71.18 136.213 71.4 136.693 71.4H149.233C150.033 71.4 150.433 71.82 150.433 72.66V76.74C150.433 77.58 150.033 78 149.233 78ZM169.004 78H163.964C163.084 78 162.644 77.58 162.644 76.74V46.68C162.644 46.24 162.424 46.02 161.984 46.02H155.144C154.304 46.02 153.884 45.6 153.884 44.76V40.68C153.884 39.84 154.304 39.42 155.144 39.42H177.824C178.664 39.42 179.084 39.84 179.084 40.68V44.76C179.084 45.6 178.664 46.02 177.824 46.02H170.984C170.504 46.02 170.264 46.24 170.264 46.68V76.74C170.264 77.58 169.844 78 169.004 78ZM188.706 40.56V42.36C188.706 43.6 188.246 45.18 187.326 47.1L184.146 53.16C183.866 53.56 183.486 53.76 183.006 53.76C182.326 53.76 181.986 53.36 181.986 52.56V40.62C181.986 39.82 182.386 39.42 183.186 39.42H187.506C188.306 39.42 188.706 39.8 188.706 40.56ZM193.78 68.16V66.96C193.78 66.12 194.2 65.7 195.04 65.7H200.14C200.98 65.7 201.4 66.12 201.4 66.96V67.44C201.4 68.96 201.7 70 202.3 70.56C202.9 71.12 204 71.4 205.6 71.4H208.42C209.98 71.4 211.06 71.1 211.66 70.5C212.3 69.9 212.62 68.78 212.62 67.14V66.42C212.62 65.26 212.14 64.38 211.18 63.78C210.26 63.14 209.1 62.76 207.7 62.64C206.3 62.52 204.78 62.3 203.14 61.98C201.54 61.62 200.04 61.18 198.64 60.66C197.24 60.1 196.06 59.04 195.1 57.48C194.18 55.88 193.72 53.84 193.72 51.36V49.26C193.72 46.14 194.6 43.72 196.36 42C198.12 40.28 200.56 39.42 203.68 39.42H209.68C212.84 39.42 215.3 40.28 217.06 42C218.82 43.72 219.7 46.14 219.7 49.26V50.4C219.7 51.24 219.28 51.66 218.44 51.66H213.34C212.5 51.66 212.08 51.24 212.08 50.4V50.04C212.08 48.48 211.78 47.42 211.18 46.86C210.58 46.3 209.48 46.02 207.88 46.02H205.54C203.9 46.02 202.78 46.34 202.18 46.98C201.62 47.58 201.34 48.78 201.34 50.58V51.72C201.34 53.6 202.98 54.68 206.26 54.96C209.66 55.24 212.68 55.92 215.32 57C216.72 57.6 217.88 58.68 218.8 60.24C219.76 61.76 220.24 63.72 220.24 66.12V68.16C220.24 71.28 219.36 73.7 217.6 75.42C215.84 77.14 213.4 78 210.28 78H203.74C200.62 78 198.18 77.14 196.42 75.42C194.66 73.7 193.78 71.28 193.78 68.16ZM246.627 78H241.527C240.687 78 240.267 77.58 240.267 76.74V40.68C240.267 39.84 240.687 39.42 241.527 39.42H256.167C259.287 39.42 261.707 40.28 263.427 42C265.147 43.68 266.007 46.08 266.007 49.2V54.96C266.007 58.08 265.147 60.5 263.427 62.22C261.707 63.9 259.287 64.74 256.167 64.74H248.607C248.127 64.74 247.887 64.96 247.887 65.4V76.74C247.887 77.58 247.467 78 246.627 78ZM248.547 58.08H254.907C256.187 58.08 257.087 57.82 257.607 57.3C258.127 56.74 258.387 55.84 258.387 54.6V49.56C258.387 48.28 258.127 47.38 257.607 46.86C257.087 46.3 256.187 46.02 254.907 46.02H248.547C248.107 46.02 247.887 46.24 247.887 46.68V57.42C247.887 57.86 248.107 58.08 248.547 58.08ZM293.084 78H273.344C272.504 78 272.084 77.58 272.084 76.74V40.68C272.084 39.84 272.504 39.42 273.344 39.42H278.444C279.284 39.42 279.704 39.84 279.704 40.68V70.68C279.704 71.12 279.944 71.34 280.424 71.34H293.084C293.884 71.34 294.284 71.78 294.284 72.66V76.74C294.284 77.58 293.884 78 293.084 78ZM303.057 78H297.297C296.577 78 296.337 77.58 296.577 76.74L306.057 40.68C306.337 39.84 306.937 39.42 307.857 39.42H315.837C316.837 39.42 317.437 39.84 317.637 40.68L327.117 76.74C327.357 77.58 327.117 78 326.397 78H320.637C320.197 78 319.897 77.92 319.737 77.76C319.577 77.56 319.457 77.22 319.377 76.74L317.697 70.14H305.997L304.317 76.74C304.237 77.22 304.097 77.56 303.897 77.76C303.737 77.92 303.457 78 303.057 78ZM311.757 46.68L307.437 64.02H316.317L311.997 46.68H311.757ZM346.595 78H341.495C340.655 78 340.235 77.58 340.235 76.74V63.9L329.255 40.74C329.095 40.38 329.095 40.08 329.255 39.84C329.455 39.56 329.735 39.42 330.095 39.42H336.455C337.095 39.42 337.575 39.84 337.895 40.68L343.895 55.26H344.315L350.195 40.68C350.475 39.84 350.955 39.42 351.635 39.42H357.995C358.395 39.42 358.675 39.54 358.835 39.78C359.035 40.02 359.035 40.34 358.835 40.74L347.855 63.9V76.74C347.855 77.58 347.435 78 346.595 78Z" fill="#5A0C0C"/>
</svg>
