<svg width="458" height="130" viewBox="0 0 458 130" fill="none" xmlns="http://www.w3.org/2000/svg">
<rect x="20" width="412" height="10" fill="#AA9314"/>
<rect x="10" y="10" width="6" height="12" fill="#AA9314"/>
<rect y="21.6641" width="7.69131" height="86.6683" fill="#AA9314"/>
<rect x="10.4062" y="110" width="9.59161" height="10" fill="#AA9314"/>
<rect x="437.273" y="10" width="6.2217" height="12.0909" fill="#AA9314"/>
<rect x="447.688" y="22" width="10.3111" height="88" fill="#AA9314"/>
<rect x="432" y="110" width="16" height="10" fill="#AA9314"/>
<rect x="20" y="120" width="418" height="10" fill="#AA9314"/>
<rect x="19.7734" y="110" width="412.445" height="10" fill="#AA9314"/>
<rect y="22" width="450" height="88" fill="#AA9314"/>
<rect x="15.2031" y="10.8359" width="421.609" height="10.9162" fill="#AA9314"/>
<rect x="20" width="418" height="10" fill="#FFE65C"/>
<rect x="10" y="10" width="10" height="10" fill="#FFE65C"/>
<rect y="20" width="10" height="80" fill="#FFE65C"/>
<rect x="10" y="100" width="10" height="10" fill="#FFE65C"/>
<rect x="432" y="10" width="16" height="10" fill="#FFE65C"/>
<rect x="448" y="20" width="10" height="80" fill="#FFE65C"/>
<rect x="434" y="100" width="14" height="10" fill="#FFE65C"/>
<rect x="20" y="110" width="418" height="10" fill="#FFE65C"/>
<rect x="20" y="100" width="418" height="10" fill="#F3D116"/>
<rect x="10" y="20" width="438" height="80" fill="#F3D116"/>
<rect x="20" y="10" width="418" height="10" fill="#F3D116"/>
<text x="229" y="65" font-family="Rajdhani, sans-serif" font-weight="700" font-size="44" fill="#5A0C0C" text-anchor="middle" dominant-baseline="middle">PLAY AGAIN</text>
</svg>
